HIERARCHY
ROOT Hips
{
	OFFSET 0.000000 0.000000 0.000000
	CHANNELS 6 Xposition Yposition Zposition Zrotation Yrotation Xrotation 
	JOINT LHipJoint
	{
		OFFSET 0.000000 0.000000 0.000000
		CHANNELS 3 Zrotation Yrotation Xrotation
		JOINT LeftUpLeg
		{
			OFFSET 1.363060 -1.794630 0.839290
			CHANNELS 3 Zrotation Yrotation Xrotation
			JOINT LeftLeg
			{
				OFFSET 2.448110 -6.726130 0.000000
				CHANNELS 3 Zrotation Yrotation Xrotation
				JOINT LeftFoot
				{
					OFFSET 2.562200 -7.039590 0.000000
					CHANNELS 3 Zrotation Yrotation Xrotation
					JOINT LeftToeBase
					{
						OFFSET 0.157640 -0.433110 2.322550
						CHANNELS 3 Zrotation Yrotation Xrotation
						End Site
						{
							OFFSET 0.000000 0.000000 0.000000
						}
					}
				}
			}
		}
	}
	JOINT RHipJoint
	{
		OFFSET 0.000000 0.000000 0.000000
		CHANNELS 3 Zrotation Yrotation Xrotation
		JOINT RightUpLeg
		{
			OFFSET -1.305520 -1.794630 0.839290
			CHANNELS 3 Zrotation Yrotation Xrotation
			JOINT RightLeg
			{
				OFFSET -2.542530 -6.985550 0.000000
				CHANNELS 3 Zrotation Yrotation Xrotation
				JOINT RightFoot
				{
					OFFSET -2.568260 -7.056230 0.000000
					CHANNELS 3 Zrotation Yrotation Xrotation
					JOINT RightToeBase
					{
						OFFSET -0.164730 -0.452590 2.363150
						CHANNELS 3 Zrotation Yrotation Xrotation
						End Site
						{
							OFFSET 0.000000 0.000000 0.000000
						}
					}
				}
			}
		}
	}
}
MOTION
Frames: 19
Frame Time: 0.008333
1.633230 16.962477 2.567934 2.704131 35.521328 17.639725 -11.138910 2.048375 -3.898055 -6.736244 16.744106 -7.342294 -2.106257 0.584977 19.234807 1.720746 11.594602 -5.698001 0.307301 0.000000 -57.232600 8.830509 0.544104 -0.228375 11.625469 -3.999347 -36.480902 2.356718 0.109067 10.704756 -2.820488 -13.489876 0.828744 -3.513101 -0.000000 -11.423800
1.652462 16.979658 2.671741 2.803274 35.396636 17.628578 -11.208411 2.074116 -3.924496 -6.467390 16.735787 -7.374588 -2.011965 0.696311 20.016170 1.705649 11.747991 -4.534216 0.559101 0.000000 -58.909800 8.787333 0.521664 -0.300659 11.635306 -3.885132 -36.453052 2.334173 -0.006497 11.827413 -2.837804 -13.328987 0.021772 -3.262300 0.000000 -10.428200
1.668277 16.998142 2.775800 2.931753 35.280568 17.600240 -11.268971 2.103113 -3.977386 -6.197440 16.818094 -7.420225 -1.920466 0.815016 20.853793 1.680574 11.821180 -3.267560 0.825500 0.000000 -60.702100 8.761329 0.510119 -0.381823 11.608018 -3.797083 -36.315625 2.307605 -0.107690 12.835242 -2.855668 -13.172628 -0.821857 -3.004200 0.000001 -9.443700
1.680636 17.017060 2.880623 3.089456 35.193599 17.562834 -11.321494 2.135013 -4.047437 -5.920736 16.973434 -7.499609 -1.832535 0.939919 21.759068 1.646021 11.800367 -1.926339 1.092700 0.000000 -62.577000 8.752431 0.507839 -0.469809 11.553858 -3.753372 -36.074039 2.278425 -0.191190 13.695744 -2.875740 -13.041725 -1.652512 -2.756300 0.000000 -8.516199
1.689827 17.035615 2.986739 3.274485 35.155134 17.530808 -11.367604 2.169165 -4.122119 -5.634439 17.174176 -7.641205 -1.748393 1.069371 22.744511 1.603648 11.679421 -0.542129 1.346200 -0.000000 -64.478700 8.758725 0.512478 -0.559595 11.484151 -3.763859 -35.748998 2.247947 -0.254757 14.390493 -2.900318 -12.955299 -2.431027 -2.531800 -0.000000 -7.682800
1.696110 17.053118 3.093945 3.479242 35.183016 17.497396 -11.409600 2.203867 -4.194844 -5.325307 17.400116 -7.844512 -1.666845 1.202348 23.811158 1.554798 11.452728 0.867282 1.574000 -0.000000 -66.391100 8.778007 0.522330 -0.658175 11.416526 -3.858376 -35.350076 2.219418 -0.301265 14.933648 -2.926835 -12.905579 -3.141195 -2.331700 -0.000000 -6.949400
1.700188 17.069081 3.202740 3.699493 35.287806 17.489578 -11.449875 2.237931 -4.249339 -5.001392 17.611643 -8.154097 -1.587619 1.336366 24.971537 1.503099 11.130932 2.269465 1.764700 0.000000 -68.202800 8.805014 0.533965 -0.752779 11.360676 -4.020452 -34.922605 2.193171 -0.329151 15.326461 -2.959464 -12.911318 -3.766463 -2.163600 0.000000 -6.336400
1.702616 17.083197 3.312411 3.919200 35.476212 17.494175 -11.492544 2.268252 -4.283054 -4.645887 17.795950 -8.564026 -1.508918 1.470885 26.222320 1.450132 10.714012 3.659516 1.911400 -0.000000 -69.894400 8.834238 0.545011 -0.849573 11.335727 -4.258395 -34.474266 2.171863 -0.342117 15.598343 -2.996448 -12.962636 -4.313654 -2.022500 -0.000000 -5.832200
1.704156 17.095382 3.422837 4.133746 35.746795 17.526178 -11.538975 2.293388 -4.286764 -4.269077 17.925411 -9.094748 -1.429966 1.603619 27.560504 1.399834 10.222857 5.022524 2.011400 -0.000000 -71.351900 8.860683 0.553156 -0.941825 11.348683 -4.557019 -34.043257 2.156376 -0.342104 15.777904 -3.038679 -13.056252 -4.795164 -1.904700 -0.000000 -5.424899
1.705435 17.105725 3.533272 4.330019 36.092408 17.579540 -11.591785 2.310833 -4.259574 -3.866645 17.992537 -9.742275 -1.349651 1.733535 28.975860 1.354750 9.671363 6.358698 2.065100 -0.000001 -72.510300 8.878652 0.556182 -1.029325 11.410016 -4.901199 -33.642427 2.147928 -0.331845 15.895426 -3.085919 -13.184432 -5.230940 -1.803300 0.000000 -5.094600
1.706921 17.114454 3.643049 4.505535 36.498642 17.653056 -11.650158 2.319515 -4.202293 -3.447917 17.991263 -10.495520 -1.267366 1.859097 30.449770 1.318005 9.084011 7.671356 2.077500 0.000000 -73.293000 8.885803 0.553682 -1.111560 11.518647 -5.277320 -33.287070 2.146861 -0.315097 15.986818 -3.136634 -13.331080 -5.646907 -1.708900 -0.000000 -4.816200
1.709363 17.121938 3.751177 4.634414 36.948751 17.730384 -11.718631 2.315285 -4.120411 -2.994008 17.937169 -11.346623 -1.183434 1.980469 31.971879 1.291001 8.471160 8.957161 2.050299 0.000000 -73.636800 8.873971 0.541794 -1.186057 11.692298 -5.647221 -32.967741 2.153618 -0.291113 16.055993 -3.193463 -13.505038 -6.054788 -1.619200 0.000000 -4.575300
1.712490 17.128482 3.857260 4.736459 37.419479 17.812784 -11.789699 2.300424 -4.020098 -2.535826 17.831557 -12.258971 -1.098390 2.095696 33.507393 1.276617 7.871661 10.219759 1.996400 0.000000 -73.474800 8.849381 0.524535 -1.256681 11.905164 -6.016310 -32.692890 2.166974 -0.266271 16.145911 -3.250729 -13.670340 -6.483935 -1.520700 0.000000 -4.342000
1.716422 17.134530 3.960628 4.803691 37.888891 17.884982 -11.863023 2.273720 -3.910262 -2.069867 17.695964 -13.205022 -1.013491 2.204622 35.034491 1.275537 7.307477 11.450363 1.923700 -0.000000 -72.780300 8.810946 0.501095 -1.323100 12.154685 -6.360921 -32.442021 2.185508 -0.240597 16.253606 -3.308672 -13.827278 -6.938955 -1.411700 -0.000000 -4.104900
1.720791 17.140384 4.061017 4.847603 38.334177 17.940276 -11.933385 2.236584 -3.801658 -1.611233 17.549088 -14.146991 -0.930610 2.306839 36.526452 1.287960 6.809132 12.633096 1.844999 0.000000 -71.524600 8.764527 0.474669 -1.390025 12.421107 -6.682495 -32.201665 2.207489 -0.217260 16.390596 -3.363294 -13.956196 -7.426823 -1.287000 -0.000000 -3.850700
1.725212 17.146331 4.158304 4.873792 38.735494 17.969412 -11.997900 2.189990 -3.703701 -1.166424 17.412243 -15.053292 -0.851513 2.402278 37.961476 1.313151 6.404367 13.744933 1.773500 0.000000 -69.740600 8.714090 0.446580 -1.458467 12.689488 -6.972245 -31.948121 2.230381 -0.196350 16.545304 -3.413507 -14.055794 -7.939574 -1.148600 -0.000000 -3.576600
1.728870 17.152474 4.252737 4.906361 39.075837 17.973559 -12.049980 2.137274 -3.625407 -0.759184 17.298986 -15.888017 -0.777565 2.490130 39.314808 1.350213 6.129017 14.761835 1.727799 0.000000 -67.540300 8.669447 0.421483 -1.533131 12.929839 -7.244711 -31.669484 2.251685 -0.180989 16.723153 -3.454577 -14.107242 -8.473532 -0.995800 0.000000 -3.273800
1.732046 17.159002 4.344398 4.920574 39.345829 17.939477 -12.094374 2.076003 -3.572458 -0.364010 17.234579 -16.654162 -0.711076 2.573240 40.591175 1.395814 5.984557 15.637883 1.712700 0.000000 -64.841100 8.624990 0.395420 -1.607976 13.160221 -7.462208 -31.335468 2.269707 -0.164347 16.870290 -3.492709 -14.150634 -8.993479 -0.843300 -0.000000 -2.971200
1.733520 17.165719 4.433980 4.960480 39.536800 17.883550 -12.121604 2.012126 -3.548696 -0.023317 17.214776 -17.320983 -0.651573 2.649231 41.764586 1.449727 6.013686 16.359004 1.751500 0.000000 -61.953300 8.595395 0.375534 -1.688653 13.336834 -7.662252 -30.954401 2.282234 -0.152384 17.012259 -3.520577 -14.152994 -9.502805 -0.687701 0.000000 -2.648600
